<svg width="38" height="53" viewBox="0 0 38 53" fill="none" xmlns="http://www.w3.org/2000/svg">
<path d="M7.64244 24.3382C7.65718 19.5369 6.31662 17.7495 2.97007 15.2026C4.57396 20.5724 1.03292 24.6226 0.266433 31.1026C-0.782581 39.9711 0.747091 49.4541 14.4069 53C9.24639 47.9092 8.8977 42.5395 10.5714 38.1461C11.1751 40.5935 11.8951 41.5061 13.5003 42.7487C12.8127 34.7194 14.0271 31.1263 19.5674 26.6395C19.0851 30.6144 19.6756 32.4946 21.9385 35.3566C27.099 40.5171 26.8898 48.1184 21.9385 53C39.3727 48.6763 42.0227 29.6382 32.1898 17.0855C32.9579 23.015 32.5049 25.5776 30.3767 29.0105C29.0517 13.0408 14.8253 11.7855 19.5674 0C5.4806 8.22895 15.8718 13.4533 7.64244 24.3382Z" fill="#FF4B00"/>
</svg>
