<svg width="72" height="53" viewBox="0 0 72 53" fill="none" xmlns="http://www.w3.org/2000/svg">
<path d="M16.6467 47.5634C9.2707 38.8727 8.86469 32.3377 0 22.0975C2.77425 21.5585 14.8873 18.19 27.2031 24.4554C39.5189 30.7209 42.2341 42.0165 35.4587 49.2477C28.0869 36.2148 22.3259 31.0126 9.2707 25.3986C21.498 32.5614 26.9048 38.0169 33.6994 50.5951C31.7369 52.4141 24.6314 56.1868 16.6467 47.5634Z" fill="#8FC347"/>
<path d="M40.466 39.2769C39.5855 33.3074 37.3571 30.3418 31.1953 25.5333C35.0525 13.0025 53.2555 0.404222 71.9999 0C64.9623 17.3142 65.0977 55.1763 41.1427 48.3045C44.317 30.3175 49.5001 21.5654 62.1202 7.27599C49.6011 17.642 45.1797 24.816 40.466 39.2769Z" fill="#1A964D"/>
</svg>
